<svg width="112" height="101" viewBox="0 0 112 101" fill="none" xmlns="http://www.w3.org/2000/svg">
<g filter="url(#filter0_d_156_122)">
<path d="M106.972 26.4963V44.9183L84.1477 67.8087V48.2892L106.972 26.4963ZM105.77 21.7629L96.1479 31.043L84.1477 19.4411V0L105.77 21.7629Z" fill="#FE004E"/>
<path d="M80.2569 1.09734V19.5194L57.4329 42.4097V22.8902L80.2569 1.09734Z" fill="#F8EAED"/>
<path d="M13.9074 36.1952L4 44.9183L26.824 67.8087V48.2892L13.9074 36.1952ZM4 19.4411V40.2019L26.824 19.4411V6.99107e-06L4 19.4411Z" fill="#FE004E" fill-opacity="0.5"/>
<path d="M30.7148 1.09734V19.5194L53.5388 42.4097V22.8902L30.7148 1.09734Z" fill="#F8EAED" fill-opacity="0.5"/>
<path d="M107.028 49.482V69.2012L84.2043 92.0915V72.572L107.028 49.482ZM105.541 46.2748L96.6063 55.4382L84.2043 43.7239V24.2828L105.541 46.2748Z" fill="#FE004E" fill-opacity="0.5"/>
<path d="M80.3135 25.3802V43.8022L57.4895 66.6925V47.173L80.3135 25.3802Z" fill="#F8EAED" fill-opacity="0.5"/>
<path d="M13.964 60.1322L4.05664 69.2012L26.8807 92.0915V72.572L13.964 60.1322ZM4.05664 45.1294V64.4848L26.8807 43.7239V24.2828L4.05664 45.1294Z" fill="#FE004E"/>
<path d="M30.7714 25.3802V43.8022L53.5954 66.6925V47.1731L30.7714 25.3802Z" fill="#F8EAED"/>
</g>
<defs>
<filter id="filter0_d_156_122" x="0" y="0" width="111.028" height="100.092" filterUnits="userSpaceOnUse" color-interpolation-filters="sRGB">
<feFlood flood-opacity="0" result="BackgroundImageFix"/>
<feColorMatrix in="SourceAlpha" type="matrix" values="0 0 0 0 0 0 0 0 0 0 0 0 0 0 0 0 0 0 127 0" result="hardAlpha"/>
<feOffset dy="4"/>
<feGaussianBlur stdDeviation="2"/>
<feComposite in2="hardAlpha" operator="out"/>
<feColorMatrix type="matrix" values="0 0 0 0 0 0 0 0 0 0 0 0 0 0 0 0 0 0 0.25 0"/>
<feBlend mode="normal" in2="BackgroundImageFix" result="effect1_dropShadow_156_122"/>
<feBlend mode="normal" in="SourceGraphic" in2="effect1_dropShadow_156_122" result="shape"/>
</filter>
</defs>
</svg>
